<?xml version="1.0" encoding="UTF-8" standalone="no"?>
<!-- Created with Inkscape (http://www.inkscape.org/) -->

<svg
   width="307.42654mm"
   height="303.64838mm"
   viewBox="0 0 307.42654 303.64837"
   version="1.1"
   id="svg5"
   xml:space="preserve"
   inkscape:version="1.2.2 (732a01da63, 2022-12-09)"
   sodipodi:docname="iniciales-original.svg"
   xmlns:inkscape="http://www.inkscape.org/namespaces/inkscape"
   xmlns:sodipodi="http://sodipodi.sourceforge.net/DTD/sodipodi-0.dtd"
   xmlns="http://www.w3.org/2000/svg"
   xmlns:svg="http://www.w3.org/2000/svg"><sodipodi:namedview
     id="namedview7"
     pagecolor="#505050"
     bordercolor="#eeeeee"
     borderopacity="1"
     inkscape:showpageshadow="0"
     inkscape:pageopacity="0"
     inkscape:pagecheckerboard="0"
     inkscape:deskcolor="#505050"
     inkscape:document-units="mm"
     showgrid="false"
     inkscape:zoom="0.20378177"
     inkscape:cx="549.60756"
     inkscape:cy="630.57654"
     inkscape:window-width="1600"
     inkscape:window-height="822"
     inkscape:window-x="-8"
     inkscape:window-y="-8"
     inkscape:window-maximized="1"
     inkscape:current-layer="layer1" /><defs
     id="defs2" /><g
     inkscape:label="Capa 1"
     inkscape:groupmode="layer"
     id="layer1"
     transform="translate(49.427689,6.742691)"><ellipse
       style="fill:#ffffff;stroke:none;stroke-width:1.20787;stroke-opacity:0.578571"
       id="path356"
       cx="104.28558"
       cy="145.0815"
       rx="153.71327"
       ry="151.82419" /><path
       style="fill:#4d4d4d;stroke-width:0.264583"
       d="m 7.7379709,236.04239 v -2.22993 l 2.4125001,-0.46859 c 3.36828,-0.65424 4.91826,-1.49367 5.94686,-3.22064 1.85343,-3.11183 2.03078,-7.93686 1.87998,-51.14517 -0.1412,-40.45647 -0.12688,-40.19653 -2.35327,-42.72584 -1.15824,-1.31583 -2.20947,-1.77114 -5.57097,-2.41291 l -2.3151001,-0.442 v -3.16963 -3.16964 l 0.7276,0.17948 c 1.12704,0.27801 21.8519801,0.36428 32.6099011,0.13574 18.338218,-0.38957 27.715673,0.55621 36.893881,3.72099 9.916993,3.41953 16.937416,9.22547 20.177805,16.68721 3.026122,6.96834 3.220282,16.63021 0.493376,24.55211 -1.882624,5.46919 -5.874366,10.66887 -10.866104,14.1543 -9.362133,6.537 -20.726836,9.68675 -36.578645,10.13785 l -5.622396,0.15999 0.0037,9.0217 c 0.0084,20.21531 0.852229,24.32803 5.379834,26.21978 0.544203,0.22739 2.145139,0.65024 3.557633,0.93968 3.834984,0.78585 3.494219,0.49838 3.494219,2.94773 v 2.13213 l -3.108854,-0.17326 c -1.70987,-0.0953 -10.490729,-0.22067 -19.513021,-0.27861 -14.869649,-0.0955 -18.505489,-0.0226 -25.4661491,0.51033 l -2.18281,0.16714 z M 54.040055,189.3354 c 5.366174,-1.40282 8.939239,-3.59709 12.497409,-7.67482 6.510523,-7.46118 7.306887,-23.81167 1.660123,-34.0847 -3.318653,-6.03755 -8.487487,-10.5472 -14.325574,-12.49863 -2.129425,-0.71177 -5.68444,-1.34294 -7.56408,-1.34294 h -0.734544 v 28.15873 c 0,26.22071 0.03076,28.16464 0.446907,28.24479 1.016998,0.19585 6.175412,-0.32028 8.019759,-0.80243 z m 47.153645,48.45693 c -0.51583,-0.0989 -0.58341,-0.23801 -0.4646,-0.95616 0.0765,-0.46222 0.37508,-2.68587 0.66358,-4.94144 0.28849,-2.25558 0.88196,-6.89901 1.31882,-10.31875 0.43686,-3.41974 1.75509,-13.71865 2.9294,-22.88646 1.17431,-9.16781 2.77645,-21.72891 3.56032,-27.91354 1.92236,-15.16724 5.55629,-43.67617 6.35725,-49.87396 0.9679,-7.48955 4.70162,-36.744196 6.36533,-49.873957 0.80212,-6.330157 1.69106,-13.295313 1.97543,-15.478126 0.28437,-2.182813 0.77647,-6.022578 1.09356,-8.532813 l 0.57652,-4.564062 h 26.67704 c 21.16455,0 26.67731,0.06834 26.67834,0.330729 7.9e-4,0.181901 0.59178,4.557448 1.31349,9.723437 0.7217,5.165991 2.09457,14.988647 3.05082,21.828126 0.95624,6.839479 2.50321,17.912291 3.4377,24.606249 0.93449,6.693957 4.1485,29.673017 7.14224,51.064587 2.99374,21.39156 5.74021,41.03687 6.10327,43.65625 0.36305,2.61937 1.89638,13.57312 3.40738,24.34166 1.511,10.76854 2.68879,19.6387 2.61732,19.71146 -0.21591,0.21978 -41.4421,0.28999 -41.65222,0.0709 -0.10722,-0.11177 -0.86333,-6.33494 -1.68026,-13.82926 -0.81693,-7.49433 -1.54325,-13.89393 -1.61405,-14.22136 l -0.12874,-0.59531 h -9.9118 -9.91179 l -0.12553,0.59531 c -0.069,0.32743 -0.72959,6.72213 -1.46789,14.21047 -0.90055,9.13394 -1.44871,13.68271 -1.66545,13.82043 -0.33086,0.21021 -35.55441,0.23478 -36.64548,0.0255 z m 55.76927,-67.68091 c 0,-0.36551 -0.65576,-7.1223 -1.45724,-15.0151 -0.80148,-7.8928 -2.05301,-20.24414 -2.78117,-27.44743 -1.40547,-13.90352 -1.60368,-15.67735 -1.73692,-15.54411 -0.0462,0.0462 -0.68306,5.97352 -1.41528,13.17185 -0.73222,7.19834 -2.04729,20.11258 -2.92239,28.69831 -0.87509,8.58572 -1.59157,15.8783 -1.59217,16.20572 l -10e-4,0.59532 h 5.95312 5.95313 z"
       id="path302" /></g></svg>
