<?xml version="1.0" encoding="utf-8"?>
<!-- Generator: Adobe Illustrator 19.0.0, SVG Export Plug-In . SVG Version: 6.00 Build 0)  -->
<svg version="1.1" id="layer" xmlns="http://www.w3.org/2000/svg" xmlns:xlink="http://www.w3.org/1999/xlink" x="0px" y="0px"
	 viewBox="-153 -46 652 652" style="enable-background:new -153 -46 652 652;" xml:space="preserve">
<style type="text/css">
	.st0{fill:#3C3C3B;}
</style>
<path class="st0" d="M-23.5,91.4c0,8.6-3.9,15.1-6.5,17.7c-2.2-1.3-12.9-4.7-19.4-4.7c-4.7,0-14.7,0.4-21.1,10.8v43.6
	c0,12.5,0,12.5,10.8,14.7v6c0,0-13.4-0.9-28-0.9s-27.6,0.9-27.6,0.9v-6c8.6-2.2,8.6-2.2,8.6-14.7v-47c0-16,0-24.2-10.4-24.2v-8.2
	c10.4-0.9,32.4-1.7,46.2-3l-0.4,30.6l0,0c6.9-16.4,22-30.2,35.4-30.2C-27.4,76.7-23.5,81.5-23.5,91.4z M86.5,131.1
	c0-38.4,24.2-54.4,49.2-54.4c24.2,0,37.1,8.2,37.1,21.6c0,12.9-12.5,17.7-29.3,14.7c0-20.3-2.2-28-10.8-28s-13.4,9.9-13.4,33.2
	c0,24.6,10.4,38,29.8,38c14.2,0,21.6-9.5,23.3-10.8l3,3c-0.4,2.2-6.5,33.6-40.6,33.6C107.2,182.4,86.5,166,86.5,131.1z M326.8,131.1
	c0-38.4,24.2-54.4,49.2-54.4c24.2,0,37.1,8.2,37.1,21.6c0,12.9-12.5,17.7-29.3,14.7c0-20.3-2.2-28-10.8-28s-13.4,9.9-13.4,33.2
	c0,24.6,10.4,38,29.8,38c14.2,0,21.6-9.5,23.3-10.8l3,3c-0.4,2.2-6.5,33.6-40.6,33.6C347.5,182.4,326.8,166,326.8,131.1z
	 M254.3,160.8c-6,12.9-19.4,20.7-36.2,21.6c-19,0.4-26.7-9.5-26.3-31.9l0.4-63h-11.2v-7.8c15.1,0,31.1-10.8,41.8-31.5h5.6
	c0,6.9-0.4,17.3-0.4,31.1h21.1v8.2H228c0,8.2,0,17.7,0,29.3v25.9c0,16.4,3.9,22,11.6,22c5.6,0,11.2-6.5,12.5-6.5L254.3,160.8z
	 M-23.5,91.4c0,8.6-3.9,15.1-6.5,17.7c-2.2-1.3-12.9-4.7-19.4-4.7c-4.7,0-14.7,0.4-21.1,10.8v43.6c0,12.5,0,12.5,10.8,14.7v6
	c0,0-13.4-0.9-28-0.9s-27.6,0.9-27.6,0.9v-6c8.6-2.2,8.6-2.2,8.6-14.7v-47c0-16,0-24.2-10.4-24.2v-8.2c10.4-0.9,32.4-1.7,46.2-3
	l-0.4,30.6l0,0c6.9-16.4,22-30.2,35.4-30.2C-27.4,76.7-23.5,81.5-23.5,91.4z M86.5,131.1c0-38.4,24.2-54.4,49.2-54.4
	c24.2,0,37.1,8.2,37.1,21.6c0,12.9-12.5,17.7-29.3,14.7c0-20.3-2.2-28-10.8-28s-13.4,9.9-13.4,33.2c0,24.6,10.4,38,29.8,38
	c14.2,0,21.6-9.5,23.3-10.8l3,3c-0.4,2.2-6.5,33.6-40.6,33.6C107.2,182.4,86.5,166,86.5,131.1z M326.8,131.1
	c0-38.4,24.2-54.4,49.2-54.4c24.2,0,37.1,8.2,37.1,21.6c0,12.9-12.5,17.7-29.3,14.7c0-20.3-2.2-28-10.8-28s-13.4,9.9-13.4,33.2
	c0,24.6,10.4,38,29.8,38c14.2,0,21.6-9.5,23.3-10.8l3,3c-0.4,2.2-6.5,33.6-40.6,33.6C347.5,182.4,326.8,166,326.8,131.1z
	 M254.3,160.8c-6,12.9-19.4,20.7-36.2,21.6c-19,0.4-26.7-9.5-26.3-31.9l0.4-63h-11.2v-7.8c15.1,0,31.1-10.8,41.8-31.5h5.6
	c0,6.9-0.4,17.3-0.4,31.1h21.1v8.2H228c0,8.2,0,17.7,0,29.3v25.9c0,16.4,3.9,22,11.6,22c5.6,0,11.2-6.5,12.5-6.5L254.3,160.8z
	 M-23.5,91.4c0,8.6-3.9,15.1-6.5,17.7c-2.2-1.3-12.9-4.7-19.4-4.7c-4.7,0-14.7,0.4-21.1,10.8v43.6c0,12.5,0,12.5,10.8,14.7v6
	c0,0-13.4-0.9-28-0.9s-27.6,0.9-27.6,0.9v-6c8.6-2.2,8.6-2.2,8.6-14.7v-47c0-16,0-24.2-10.4-24.2v-8.2c10.4-0.9,32.4-1.7,46.2-3
	l-0.4,30.6l0,0c6.9-16.4,22-30.2,35.4-30.2C-27.4,76.7-23.5,81.5-23.5,91.4z M86.5,131.1c0-38.4,24.2-54.4,49.2-54.4
	c24.2,0,37.1,8.2,37.1,21.6c0,12.9-12.5,17.7-29.3,14.7c0-20.3-2.2-28-10.8-28s-13.4,9.9-13.4,33.2c0,24.6,10.4,38,29.8,38
	c14.2,0,21.6-9.5,23.3-10.8l3,3c-0.4,2.2-6.5,33.6-40.6,33.6C107.2,182.4,86.5,166,86.5,131.1z M326.8,131.1
	c0-38.4,24.2-54.4,49.2-54.4c24.2,0,37.1,8.2,37.1,21.6c0,12.9-12.5,17.7-29.3,14.7c0-20.3-2.2-28-10.8-28s-13.4,9.9-13.4,33.2
	c0,24.6,10.4,38,29.8,38c14.2,0,21.6-9.5,23.3-10.8l3,3c-0.4,2.2-6.5,33.6-40.6,33.6C347.5,182.4,326.8,166,326.8,131.1z
	 M254.3,160.8c-6,12.9-19.4,20.7-36.2,21.6c-19,0.4-26.7-9.5-26.3-31.9l0.4-63h-11.2v-7.8c15.1,0,31.1-10.8,41.8-31.5h5.6
	c0,6.9-0.4,17.3-0.4,31.1h21.1v8.2H228c0,8.2,0,17.7,0,29.3v25.9c0,16.4,3.9,22,11.6,22c5.6,0,11.2-6.5,12.5-6.5L254.3,160.8z
	 M-242.3,179.4v-5.6l5.2-0.9c3.5-0.9,5.6-2.6,6.5-6c0.9-3,1.3-11.2,1.3-24.2V75.4c0-12.9-0.4-21.1-1.3-24.2s-2.6-4.7-6-5.6l-5.6-0.9
	v-8.2c8.6,0.4,14.7,0.9,30.6,0.4c15.5,0,22-0.4,24.6-0.4c20.7,0,36.7,3.9,47.9,10.8c11.2,7.3,16.8,17.7,16.8,31.9
	c0,15.5-6.5,27.2-18.6,34.9s-27.2,11.6-52.2,11.6v16.8c0,12.1,0.4,19.8,1.7,22.9c1.3,3,2.2,5.2,8.2,6.5l6,1.3v5.6
	c-12.1-0.9-23.3-0.9-35.4-0.9C-225.4,178.1-231.5,178.5-242.3,179.4z M-159.9,84.1c0-11.6-3-21.1-9.5-28
	c-6.5-6.9-13.4-10.8-24.2-10.8v72.5c11.2,0,18.6-3,24.6-8.6C-162.9,103-159.9,94.8-159.9,84.1z M-191.4,339.4l8.6,85H-200
	L-191.4,339.4z M-228,241.1l-35.4,279.1h53.5l4.3-41h28.5l4.3,41h60l-39.3-279.1C-152.1,241.1-228,241.1-228,241.1z M-22.7,454.2
	c0,8.6-2.2,14.7-9.9,14.7S-43,463.7-43,454.2V305.4c0-10.4,2.2-13.8,10.4-13.8c7.8,0,10.4,4.7,10.4,13.8v34.1h60.8v-36.7
	c0-36.7-16.4-65.1-66-65.1h-11.2c-50,0-68.2,31.5-68.2,71.6v141.9c0,43.1,16.4,73.8,68.6,73.8h10.8c49.2,0,66-33.6,66-68.6v-40.6
	h-61.3V454.2L-22.7,454.2z M48.9,241.1v57.8h34.9v221.3h61.3V298.9h34.9v-57.8H48.9L48.9,241.1z M197.3,520.2H259V241.1h-61.7V520.2
	z M369,310.1c0-10.4-3.9-15.5-11.2-15.5c-8.6,0-11.2,5.2-11.2,15.5v142.8c0,8.6,3,13.8,11.6,13.8c7.8,0,10.8-5.2,10.8-13.8
	L369,310.1L369,310.1z M433.3,448.6c0,48.3-26.7,75.9-69,75.9h-12.1c-45.3,0-69.9-27.2-69.9-75.9V316.1c0-47.9,20.3-78.5,69.5-78.5
	h12.1c49.6,0,69.5,31.1,69.5,78.5L433.3,448.6L433.3,448.6z M546.8,241.1v135l-31.9-135h-60v279.1h53.5V374.8L545,520.2h54.4V241.1
	H546.8z M542,173.4c8.6-2.2,8.6-2.6,8.6-15.1V61.2c0-16,0-16-10.4-22.4v-4.3l47.9-9.5c0,0-1.7,17.3-1.7,27.2v106.1
	c0,12.5,0,12.9,9.1,15.1v6c0,0-19.4-0.9-25.9-0.9c-6.9,0-27.6,0.9-27.6,0.9L542,173.4L542,173.4z M85.6,168.2
	c-6,8.2-15.5,13.8-26.7,13.8c-12.9,0-21.6-4.7-23.7-18.6c-7.3,12.1-16,18.6-31.1,18.6c-18.1,0-28-11.6-28-25
	c0-22.4,22.9-26.7,47.9-35.8l10.8-3.9v-10.4c0-16.4-3.5-22-11.6-22c-7.3,0-10.4,6-8.6,27.6c-14.7,2.2-31.1,1.7-31.1-12.1
	S2.8,76.3,26.9,76.3c31.9,0,44,6.9,44,36.2v38.4c0,13.8,2.2,15.5,6.9,15.5c3,0,5.2-1.3,6.5-1.7L85.6,168.2z M13.1,148.3
	c0,8.6,3.9,14.7,10.4,14.7c4.7,0,8.2-1.7,11.2-4.7v-0.4v-31.9l-2.2,1.3C20.5,131.9,13.6,134.5,13.1,148.3 M535.6,168.2
	c-6,8.2-15.5,13.8-26.7,13.8c-12.9,0-21.6-4.7-23.7-18.6c-7.3,12.1-16,18.6-31.1,18.6c-18.1,0-28-11.6-28-25
	c0-22.4,22.9-26.7,47.9-35.8l10.8-3.9v-10.4c0-16.4-3.5-22-11.6-22c-7.3,0-10.4,6-8.6,27.6c-14.7,2.2-31.1,1.7-31.1-12.1
	s19.4-24.2,43.6-24.2c31.9,0,44,6.9,44,36.2v38.4c0,13.8,2.2,15.5,6.9,15.5c3,0,5.2-1.3,6.5-1.7L535.6,168.2z M463.1,148.3
	c0,8.6,3.9,14.7,10.4,14.7c4.7,0,8.2-1.7,11.2-4.7v-0.4v-31.9l-2.2,1.3C470.4,131.9,463.5,134.5,463.1,148.3 M264.2,173.4
	c8.6-2.2,8.6-2.2,8.6-14.7v-44c0-16,1.7-27.2-9.9-27.2v-7.8l47.5-8.6c0,0-1.7,22.9-1.7,32.8v54.8c0,12.5,1.7,12.5,10.8,14.7v6
	c0,0-20.3-0.9-27.2-0.9c-6.9,0-28.5,0.9-28.5,0.9L264.2,173.4L264.2,173.4z M277.1,33.1c-3.5,3.5-5.2,7.8-5.2,12.9s1.7,9.5,5.2,12.9
	c3.5,3.5,7.8,5.2,12.9,5.2c5.2,0,9.5-1.7,12.9-5.2s5.2-7.8,5.2-12.9s-1.7-9.5-5.2-12.9s-7.8-5.2-12.9-5.2
	C284.9,28,280.6,29.3,277.1,33.1z"/>
</svg>
