<?xml version="1.0" encoding="UTF-8" standalone="no"?>
<!-- Generator: Adobe Illustrator 19.0.0, SVG Export Plug-In . SVG Version: 6.00 Build 0)  -->

<svg
   version="1.1"
   id="layer"
   x="0px"
   y="0px"
   viewBox="-153 -46 862.79999 500"
   xml:space="preserve"
   sodipodi:docname="practical-action-logo-white-vector.svg"
   width="862.79999"
   height="500"
   inkscape:version="1.2.2 (732a01da63, 2022-12-09)"
   xmlns:inkscape="http://www.inkscape.org/namespaces/inkscape"
   xmlns:sodipodi="http://sodipodi.sourceforge.net/DTD/sodipodi-0.dtd"
   xmlns="http://www.w3.org/2000/svg"
   xmlns:svg="http://www.w3.org/2000/svg"><defs
   id="defs9" /><sodipodi:namedview
   id="namedview7"
   pagecolor="#505050"
   bordercolor="#eeeeee"
   borderopacity="1"
   inkscape:showpageshadow="0"
   inkscape:pageopacity="0"
   inkscape:pagecheckerboard="0"
   inkscape:deskcolor="#505050"
   showgrid="false"
   inkscape:zoom="0.49616564"
   inkscape:cx="294.25657"
   inkscape:cy="258.98609"
   inkscape:window-width="1600"
   inkscape:window-height="822"
   inkscape:window-x="-8"
   inkscape:window-y="-8"
   inkscape:window-maximized="1"
   inkscape:current-layer="layer" />
<style
   type="text/css"
   id="style2">
	.st0{fill:#3C3C3B;}
</style>
<path
   class="st0"
   d="M 86.9,20.4 C 86.9,29 83,35.5 80.4,38.1 78.2,36.8 67.5,33.4 61,33.4 c -4.7,0 -14.7,0.4 -21.1,10.8 v 43.6 c 0,12.5 0,12.5 10.8,14.7 v 6 c 0,0 -13.4,-0.9 -28,-0.9 -14.6,0 -27.6,0.9 -27.6,0.9 v -6 c 8.6,-2.2 8.6,-2.2 8.6,-14.7 v -47 c 0,-16 0,-24.2 -10.4,-24.2 V 8.4 C 3.7,7.5 25.7,6.7 39.5,5.4 L 39.1,36 v 0 C 46,19.6 61.1,5.8 74.5,5.8 83,5.7 86.9,10.5 86.9,20.4 Z m 110,39.7 c 0,-38.4 24.2,-54.4 49.2,-54.4 24.2,0 37.1,8.2 37.1,21.6 0,12.9 -12.5,17.7 -29.3,14.7 0,-20.3 -2.2,-28 -10.8,-28 -8.6,0 -13.4,9.9 -13.4,33.2 0,24.6 10.4,38 29.8,38 14.2,0 21.6,-9.5 23.3,-10.8 l 3,3 c -0.4,2.2 -6.5,33.6 -40.6,33.6 -27.6,0.4 -48.3,-16 -48.3,-50.9 z m 240.3,0 c 0,-38.4 24.2,-54.4 49.2,-54.4 24.2,0 37.1,8.2 37.1,21.6 0,12.9 -12.5,17.7 -29.3,14.7 0,-20.3 -2.2,-28 -10.8,-28 -8.6,0 -13.4,9.9 -13.4,33.2 0,24.6 10.4,38 29.8,38 14.2,0 21.6,-9.5 23.3,-10.8 l 3,3 c -0.4,2.2 -6.5,33.6 -40.6,33.6 -27.6,0.4 -48.3,-16 -48.3,-50.9 z m -72.5,29.7 c -6,12.9 -19.4,20.7 -36.2,21.6 -19,0.4 -26.7,-9.5 -26.3,-31.9 l 0.4,-63 H 291.4 V 8.7 c 15.1,0 31.1,-10.8 41.8,-31.5 h 5.6 c 0,6.9 -0.4,17.3 -0.4,31.1 h 21.1 v 8.2 h -21.1 c 0,8.2 0,17.7 0,29.3 v 25.9 c 0,16.4 3.9,22 11.6,22 5.6,0 11.2,-6.5 12.5,-6.5 z M 86.9,20.4 C 86.9,29 83,35.5 80.4,38.1 78.2,36.8 67.5,33.4 61,33.4 c -4.7,0 -14.7,0.4 -21.1,10.8 v 43.6 c 0,12.5 0,12.5 10.8,14.7 v 6 c 0,0 -13.4,-0.9 -28,-0.9 -14.6,0 -27.6,0.9 -27.6,0.9 v -6 c 8.6,-2.2 8.6,-2.2 8.6,-14.7 v -47 c 0,-16 0,-24.2 -10.4,-24.2 V 8.4 C 3.7,7.5 25.7,6.7 39.5,5.4 L 39.1,36 v 0 C 46,19.6 61.1,5.8 74.5,5.8 83,5.7 86.9,10.5 86.9,20.4 Z m 110,39.7 c 0,-38.4 24.2,-54.4 49.2,-54.4 24.2,0 37.1,8.2 37.1,21.6 0,12.9 -12.5,17.7 -29.3,14.7 0,-20.3 -2.2,-28 -10.8,-28 -8.6,0 -13.4,9.9 -13.4,33.2 0,24.6 10.4,38 29.8,38 14.2,0 21.6,-9.5 23.3,-10.8 l 3,3 c -0.4,2.2 -6.5,33.6 -40.6,33.6 -27.6,0.4 -48.3,-16 -48.3,-50.9 z m 240.3,0 c 0,-38.4 24.2,-54.4 49.2,-54.4 24.2,0 37.1,8.2 37.1,21.6 0,12.9 -12.5,17.7 -29.3,14.7 0,-20.3 -2.2,-28 -10.8,-28 -8.6,0 -13.4,9.9 -13.4,33.2 0,24.6 10.4,38 29.8,38 14.2,0 21.6,-9.5 23.3,-10.8 l 3,3 c -0.4,2.2 -6.5,33.6 -40.6,33.6 -27.6,0.4 -48.3,-16 -48.3,-50.9 z m -72.5,29.7 c -6,12.9 -19.4,20.7 -36.2,21.6 -19,0.4 -26.7,-9.5 -26.3,-31.9 l 0.4,-63 H 291.4 V 8.7 c 15.1,0 31.1,-10.8 41.8,-31.5 h 5.6 c 0,6.9 -0.4,17.3 -0.4,31.1 h 21.1 v 8.2 h -21.1 c 0,8.2 0,17.7 0,29.3 v 25.9 c 0,16.4 3.9,22 11.6,22 5.6,0 11.2,-6.5 12.5,-6.5 z M 86.9,20.4 C 86.9,29 83,35.5 80.4,38.1 78.2,36.8 67.5,33.4 61,33.4 c -4.7,0 -14.7,0.4 -21.1,10.8 v 43.6 c 0,12.5 0,12.5 10.8,14.7 v 6 c 0,0 -13.4,-0.9 -28,-0.9 -14.6,0 -27.6,0.9 -27.6,0.9 v -6 c 8.6,-2.2 8.6,-2.2 8.6,-14.7 v -47 c 0,-16 0,-24.2 -10.4,-24.2 V 8.4 C 3.7,7.5 25.7,6.7 39.5,5.4 L 39.1,36 v 0 C 46,19.6 61.1,5.8 74.5,5.8 83,5.7 86.9,10.5 86.9,20.4 Z m 110,39.7 c 0,-38.4 24.2,-54.4 49.2,-54.4 24.2,0 37.1,8.2 37.1,21.6 0,12.9 -12.5,17.7 -29.3,14.7 0,-20.3 -2.2,-28 -10.8,-28 -8.6,0 -13.4,9.9 -13.4,33.2 0,24.6 10.4,38 29.8,38 14.2,0 21.6,-9.5 23.3,-10.8 l 3,3 c -0.4,2.2 -6.5,33.6 -40.6,33.6 -27.6,0.4 -48.3,-16 -48.3,-50.9 z m 240.3,0 c 0,-38.4 24.2,-54.4 49.2,-54.4 24.2,0 37.1,8.2 37.1,21.6 0,12.9 -12.5,17.7 -29.3,14.7 0,-20.3 -2.2,-28 -10.8,-28 -8.6,0 -13.4,9.9 -13.4,33.2 0,24.6 10.4,38 29.8,38 14.2,0 21.6,-9.5 23.3,-10.8 l 3,3 c -0.4,2.2 -6.5,33.6 -40.6,33.6 -27.6,0.4 -48.3,-16 -48.3,-50.9 z m -72.5,29.7 c -6,12.9 -19.4,20.7 -36.2,21.6 -19,0.4 -26.7,-9.5 -26.3,-31.9 l 0.4,-63 H 291.4 V 8.7 c 15.1,0 31.1,-10.8 41.8,-31.5 h 5.6 c 0,6.9 -0.4,17.3 -0.4,31.1 h 21.1 v 8.2 h -21.1 c 0,8.2 0,17.7 0,29.3 v 25.9 c 0,16.4 3.9,22 11.6,22 5.6,0 11.2,-6.5 12.5,-6.5 z m -496.6,18.6 v -5.6 l 5.2,-0.9 c 3.5,-0.9 5.6,-2.6 6.5,-6 0.9,-3 1.3,-11.2 1.3,-24.2 V 4.4 c 0,-12.9 -0.4,-21.1 -1.3,-24.2 -0.9,-3.1 -2.6,-4.7 -6,-5.6 l -5.6,-0.9 v -8.2 c 8.6,0.4 14.7,0.9 30.6,0.4 15.5,0 22,-0.4 24.6,-0.4 20.7,0 36.7,3.9 47.9,10.8 11.2,7.3 16.8,17.7 16.8,31.9 0,15.5 -6.5,27.2 -18.6,34.9 -12.1,7.7 -27.2,11.6 -52.2,11.6 v 16.8 c 0,12.1 0.4,19.8 1.7,22.9 1.3,3 2.2,5.2 8.2,6.5 l 6,1.3 v 5.6 c -12.1,-0.9 -23.3,-0.9 -35.4,-0.9 -12.8,0.2 -18.9,0.6 -29.7,1.5 z m 82.4,-95.3 c 0,-11.6 -3,-21.1 -9.5,-28 -6.5,-6.9 -13.4,-10.8 -24.2,-10.8 v 72.5 c 11.2,0 18.6,-3 24.6,-8.6 6.1,-6.2 9.1,-14.4 9.1,-25.1 z m -31.5,255.3 8.6,85 h -17.2 z m -36.6,-98.3 -35.4,279.1 h 53.5 l 4.3,-41 h 28.5 l 4.3,41 h 60 L -41.7,170.1 c 0,0 -75.9,0 -75.9,0 z M 87.7,383.2 c 0,8.6 -2.2,14.7 -9.9,14.7 -7.7,0 -10.4,-5.2 -10.4,-14.7 V 234.4 c 0,-10.4 2.2,-13.8 10.4,-13.8 7.8,0 10.4,4.7 10.4,13.8 v 34.1 H 149 v -36.7 c 0,-36.7 -16.4,-65.1 -66,-65.1 H 71.8 c -50,0 -68.2,31.5 -68.2,71.6 V 380.2 C 3.6,423.3 20,454 72.2,454 H 83 c 49.2,0 66,-33.6 66,-68.6 V 344.8 H 87.7 Z m 71.6,-213.1 v 57.8 h 34.9 v 221.3 h 61.3 V 227.9 h 34.9 v -57.8 z m 148.4,279.1 h 61.7 V 170.1 H 307.7 Z M 479.4,239.1 c 0,-10.4 -3.9,-15.5 -11.2,-15.5 -8.6,0 -11.2,5.2 -11.2,15.5 v 142.8 c 0,8.6 3,13.8 11.6,13.8 7.8,0 10.8,-5.2 10.8,-13.8 z m 64.3,138.5 c 0,48.3 -26.7,75.9 -69,75.9 h -12.1 c -45.3,0 -69.9,-27.2 -69.9,-75.9 V 245.1 c 0,-47.9 20.3,-78.5 69.5,-78.5 h 12.1 c 49.6,0 69.5,31.1 69.5,78.5 z M 657.2,170.1 v 135 l -31.9,-135 h -60 v 279.1 h 53.5 V 303.8 l 36.6,145.4 h 54.4 V 170.1 Z m -4.8,-67.7 C 661,100.2 661,99.8 661,87.3 V -9.8 c 0,-16 0,-16 -10.4,-22.4 v -4.3 l 47.9,-9.5 c 0,0 -1.7,17.3 -1.7,27.2 V 87.3 c 0,12.5 0,12.9 9.1,15.1 v 6 c 0,0 -19.4,-0.9 -25.9,-0.9 -6.9,0 -27.6,0.9 -27.6,0.9 z M 196,97.2 c -6,8.2 -15.5,13.8 -26.7,13.8 -12.9,0 -21.6,-4.7 -23.7,-18.6 -7.3,12.1 -16,18.6 -31.1,18.6 -18.1,0 -28,-11.6 -28,-25 0,-22.4 22.9,-26.7 47.9,-35.8 l 10.8,-3.9 V 35.9 c 0,-16.4 -3.5,-22 -11.6,-22 -7.3,0 -10.4,6 -8.6,27.6 -14.7,2.2 -31.1,1.7 -31.1,-12.1 0,-13.8 19.3,-24.1 43.4,-24.1 31.9,0 44,6.9 44,36.2 v 38.4 c 0,13.8 2.2,15.5 6.9,15.5 3,0 5.2,-1.3 6.5,-1.7 z M 123.5,77.3 c 0,8.6 3.9,14.7 10.4,14.7 4.7,0 8.2,-1.7 11.2,-4.7 V 86.9 55 l -2.2,1.3 c -12,4.6 -18.9,7.2 -19.4,21 M 646,97.2 c -6,8.2 -15.5,13.8 -26.7,13.8 -12.9,0 -21.6,-4.7 -23.7,-18.6 -7.3,12.1 -16,18.6 -31.1,18.6 -18.1,0 -28,-11.6 -28,-25 0,-22.4 22.9,-26.7 47.9,-35.8 l 10.8,-3.9 V 35.9 c 0,-16.4 -3.5,-22 -11.6,-22 -7.3,0 -10.4,6 -8.6,27.6 -14.7,2.2 -31.1,1.7 -31.1,-12.1 0,-13.8 19.4,-24.2 43.6,-24.2 31.9,0 44,6.9 44,36.2 v 38.4 c 0,13.8 2.2,15.5 6.9,15.5 3,0 5.2,-1.3 6.5,-1.7 z M 573.5,77.3 c 0,8.6 3.9,14.7 10.4,14.7 4.7,0 8.2,-1.7 11.2,-4.7 V 86.9 55 l -2.2,1.3 c -12.1,4.6 -19,7.2 -19.4,21 m -198.9,25.1 c 8.6,-2.2 8.6,-2.2 8.6,-14.7 v -44 c 0,-16 1.7,-27.2 -9.9,-27.2 V 8.7 l 47.5,-8.6 c 0,0 -1.7,22.9 -1.7,32.8 v 54.8 c 0,12.5 1.7,12.5 10.8,14.7 v 6 c 0,0 -20.3,-0.9 -27.2,-0.9 -6.9,0 -28.5,0.9 -28.5,0.9 z m 12.9,-140.3 c -3.5,3.5 -5.2,7.8 -5.2,12.9 0,5.1 1.7,9.5 5.2,12.9 3.5,3.5 7.8,5.2 12.9,5.2 5.2,0 9.5,-1.7 12.9,-5.2 3.4,-3.5 5.2,-7.8 5.2,-12.9 0,-5.1 -1.7,-9.5 -5.2,-12.9 -3.5,-3.4 -7.8,-5.2 -12.9,-5.2 -5.1,0.1 -9.4,1.4 -12.9,5.2 z"
   id="path4"
   style="fill:#ffffff" />
</svg>
